<!-- Generator: Adobe Illustrator 19.1.0, SVG Export Plug-In  -->
<svg version="1.1"
	 xmlns="http://www.w3.org/2000/svg" xmlns:xlink="http://www.w3.org/1999/xlink" xmlns:a="http://ns.adobe.com/AdobeSVGViewerExtensions/3.0/"
	 x="0px" y="0px" width="191.8px" height="183px" viewBox="0 0 191.8 183" style="enable-background:new 0 0 191.8 183;"
	 xml:space="preserve">
<style type="text/css">
	.st0{opacity:0.8;}
	.st1{fill:#FFFFFF;}
	.st2{fill:#BF2033;}
</style>
<defs>
</defs>
<path class="st0" d="M7.4,50.3C2.6,61.6,0,74.1,0,87.2c0,53,42.9,95.9,95.9,95.9c53,0,95.9-42.9,95.9-95.9c0-13.1-2.6-25.5-7.4-36.9
	H7.4z"/>
<g>
	<circle class="st1" cx="97.9" cy="87.3" r="85.3"/>
	<g>
		<path class="st2" d="M95.7,4.6c-45.5,0-82.6,37-82.6,82.6c0,45.5,37,82.6,82.6,82.6c45.5,0,82.6-37,82.6-82.6
			C178.3,41.6,141.2,4.6,95.7,4.6L95.7,4.6z M95.7,174.3c-48.1,0-87.1-39.1-87.1-87.2C8.6,39.1,47.7,0,95.7,0
			c48.1,0,87.2,39.1,87.2,87.2C182.9,135.2,143.8,174.3,95.7,174.3L95.7,174.3z"/>
		<path class="st2" d="M138.5,57.8c-1.1,0.7-0.8,0.9-1.9,1.1c-1.4,0.5-1.7,0.1-3.1-0.6c-1.1,1.2-5.2,2.5-6.6,3.3
			c-0.6,0.3-1.2,0-2,0.4c-0.6,0.2-1,1.1-1.6,1.4c-0.2,0.1-0.7-0.2-1-0.1c-0.2,0.1-0.4,0.9-0.5,1c-0.7,0.4-1.3,0.5-2,0.9
			c-1.8,0.9-3.4,1.3-4.6,1.7c-0.2,0.1-0.4,0.9-0.6,1c-0.6,0.3-1.4,0.5-2,0.9c-4.7,2.7-9.4,5-14.3,7.2c0,4-0.4,8.4,0.3,11.9
			c0.1,0.3,0.8,1.1,0.9,1.5c0.2,0.6,0.1,1.9,0.4,2.5c0.2,0.5,1.2,1,1.4,1.6c0.4,1,0.1,2,0.4,2.5c0.2,0.4,1,1,1.4,1.6
			c1.5,2.1,1.4,2,3.8,3.2c2.4,1.2,5.6,2.9,7.8,3.4c2.1,0.5,4.6,0,6.9,0.9c1.5,0.1,0.6-2.5,2.1-2.4c0.9,1.7,3.8,2.2,5.4,0.8
			c0,1,1.1,1.2,1.9,1.6c1.7,0.8,2,0.3,2.9,1.2c1.5-0.5,2-2,4.1-1.8c1.2,0.3,1.9,1.3,3.4,1.7c0.9,0.2,2.3-0.4,2.9,0.7
			c1.6,0.7,0.5-1.6,2-0.9c1.4,0.3,1.6,1.6,2.8,2c2.5-6.4,3.9-13.4,3.9-20.8c0-11.8-3.6-22.7-9.7-31.8c-0.7,0.6-1.8,0.4-2.5,0.8
			C140.1,56.5,139.2,57.4,138.5,57.8L138.5,57.8z"/>
		<path class="st2" d="M124.5,57.5c2.3-2,5.9-2.7,6.8-6.2c3.1-0.4,3.7-2,6.4-2.9c-10.4-11.3-25.4-18.4-42-18.4
			c-31.6,0-57.1,25.6-57.1,57.1c0,3.5,0.3,7,0.9,10.3c1.8-0.2,3.1-1.9,4.4-2.7c0.2-0.1,0.8,0.1,1,0.1c1-0.2,1-2,2.1-1.9
			c1.4,0.5,1.3-0.6,2.5-0.4c2.1-2.6,6.7-2.3,8.3-5.5c1.2-1-0.3-1.7,0.2-3.5c0.3-0.8,1.6-0.3,1.1-1.9c0.6-2.2-1.1-2.5-0.7-4.5
			c-0.5-1.6,1.6-0.3,1.1-1.9c-1-1.8-0.3-3-0.2-5c0.1-1.7-0.2-3.5-1.2-4.5c3.1-2,1.5-5.5,1-8.9c2.6-1.4,1-5.8,1.4-7.9
			c1.5-0.3,0.9,1.4,2.4,1.1c-0.2-1.9,1.8-1.1,2.6-1.8c0.7,0.3,1.2,0.8,1.9,1.1c-0.3-1.6,1.7-1,2.6-1.3c1.1-0.4,2.2-1.1,3.1-1.3
			c0.8-0.2,0.9,0.8,1.5-0.4c0.6,0.3,1.1,0.6,1.4,1.1c1.6,0.7,0.5-1.6,2-0.9c1.2,1.3,3.2,0.6,4.8,2.3c0.5-2.4,0.9-0.3,2.5-0.9
			c0.9-0.3,1.9-2.6,3-0.8c0.9-0.3,0.1-2.4,1.1-2.4c0.3,0.3,2.3,1.3,2.5,0.1c-1.9-1.4,2.8-1.2,3-0.3l1-0.4c3-0.2,1.7,3.1,1.7,4.6
			c0.1,2.2-0.4,4.6-0.4,6.4c0,5.5,1,11.5,0.6,16.4c2.8-0.5,5-1.8,7.1-3.1c2-1.2,3.9-3.2,6.7-3.6l0.9-0.1c0-0.8,3.2-2.9,4.7-3.2
			l0.7-0.2c-0.1-0.5,2.2-0.9,2.9-1.4c0.5-0.4,1.7-1.8,2.7-2.2H124.5L124.5,57.5z"/>
		<path d="M57.6,109.5c0.1,0.4,0.5,0.5,0.4,1c-0.7,1.6-2.1,2.2-4.1,2.3C54.6,111,55.8,109.9,57.6,109.5L57.6,109.5z"/>
		<path d="M90.7,59.1c2.5-0.3,1.4,2.5,2.8,3.1c-1.1,1.7-1.3,4.5-2.3,6.3C89.8,66.6,90.7,62.5,90.7,59.1L90.7,59.1z"/>
		<path d="M101.8,110c-2.9-4-6.2-7.7-8.8-11.9c0-0.9,0.7-1,0.6-2c0.5,0,1,0.1,1.5,0.1c2.7,3.7,4.9,7.9,8.3,10.9
			c4.1,0,6.7,1.3,7.2,4.4C107.5,112.9,104.7,110.3,101.8,110L101.8,110z M91.5,89.5c-1.4,1.2-3.4-2.1-1.8-3.6
			C90.9,86.6,91.7,87.7,91.5,89.5L91.5,89.5z M90.3,93.9c-2.6,0.2-2.6-2.5-1.8-4.1C90.4,90,90.4,91.9,90.3,93.9L90.3,93.9z"/>
		<path d="M135.9,114.8c2.7,0.4,5.1,1.1,5.3,3.8C138.7,117.9,136.3,117.2,135.9,114.8L135.9,114.8z"/>
		<path d="M119.4,130.9c-0.2,0-0.3,0-0.4,0l0,0.9l0.4,0c0.4,0,0.7-0.1,0.7-0.5C120.1,131.1,119.8,130.9,119.4,130.9L119.4,130.9z
			 M120.2,133.7c-0.1-0.1-0.2-0.4-0.3-0.8c-0.1-0.4-0.3-0.5-0.7-0.5l-0.4,0l0,1.3l-0.7,0l0-3.2c0.3-0.1,0.7-0.1,1.2-0.1
			c0.6,0,0.9,0.1,1.1,0.2c0.2,0.1,0.3,0.4,0.3,0.7c0,0.4-0.3,0.6-0.7,0.8v0c0.3,0.1,0.5,0.4,0.6,0.8c0.1,0.5,0.2,0.7,0.2,0.8
			L120.2,133.7L120.2,133.7z"/>
		<polygon points="22,111.3 21.2,108.2 29.6,100 29.5,99.9 19.8,102.3 19.1,99.4 33.6,95.9 34.4,99 26.1,107.2 26.1,107.3
			35.8,104.9 36.5,107.8 22,111.3 		"/>
		<path d="M27.6,89.9l-0.1-3.8L22.1,88l0,0L27.6,89.9L27.6,89.9z M18.4,89.7l-0.1-3.3l14.9-5.7l0.1,3.3L30,85.2l0.1,5.4l3.3,1.1
			l0.1,3.2L18.4,89.7L18.4,89.7z"/>
		<polygon points="21.7,77.9 21.1,82.2 18.3,81.8 20.1,70 22.8,70.4 22.2,74.7 34.2,76.5 33.8,79.7 21.7,77.9 		"/>
		<polygon points="20.6,68.7 21.4,65.6 35.9,69.5 35,72.6 20.6,68.7 		"/>
		<path d="M36.2,61.5c1.1-2.6-0.7-4.6-3-5.6c-2.4-1-5.1-1-6.3,1.6c-1.1,2.6,0.7,4.6,3.1,5.7C32.3,64.1,35.1,64.1,36.2,61.5
			L36.2,61.5z M24.4,56.4c1.8-4.1,6-5.2,10.1-3.4c4,1.7,6.1,5.5,4.3,9.7c-1.8,4.1-6,5.2-10,3.5C24.7,64.3,22.6,60.5,24.4,56.4
			L24.4,56.4z"/>
		<polygon points="29.3,47.1 31.1,44.5 42.8,45.4 42.8,45.4 34.7,39.6 36.4,37.1 48.6,45.8 46.7,48.4 35,47.5 35,47.6 43.2,53.4
			41.4,55.8 29.3,47.1 		"/>
		<path d="M48.7,37.8l2.8-2.5l-5-2.8l0,0L48.7,37.8L48.7,37.8z M42.8,30.7l2.4-2.2L59.3,36l-2.5,2.2l-3-1.7l-4.1,3.6l1.4,3.2
			l-2.4,2.2L42.8,30.7L42.8,30.7z"/>
		<polygon points="52.1,23.1 54.9,21.5 61.1,31.9 67.2,28.3 68.6,30.7 59.8,35.9 52.1,23.1 		"/>
		<polygon points="67.6,15 77.3,11.8 78.2,14.5 71.5,16.6 72.5,19.9 78.3,18 79.1,20.5 73.3,22.3 75.2,28.2 72.1,29.2 67.6,15 		"/>
		<polygon points="79,11.6 82.2,11 85.1,25.7 82,26.3 79,11.6 		"/>
		<polygon points="85.4,10.3 96.3,9.6 96.5,12.4 88.8,12.9 89,16.1 96.1,15.6 96.2,18.2 89.2,18.6 89.4,22.3 97.3,21.8 97.4,24.5
			86.4,25.2 85.4,10.3 		"/>
		<polygon points="100.1,9.8 103.3,10.2 101.9,22.3 108.9,23.1 108.6,25.9 98.4,24.7 100.1,9.8 		"/>
		<path d="M113.4,24.4l2.7,0.9c1.8,0.6,3.8,0,4.9-3.1c0.9-2.9,0.6-5-2.4-6l-2.2-0.7L113.4,24.4L113.4,24.4z M114.2,11.8l6,2
			c3.6,1.2,5.5,4.4,4,9.1c-1.4,4.1-4.4,6.5-8.7,5.1l-6-2L114.2,11.8L114.2,11.8z"/>
		<path d="M131.9,29.3l3.1,2.1l1.5-5.6l0,0L131.9,29.3L131.9,29.3z M137.2,21.9l2.7,1.8l-3.7,15.5l-2.8-1.8l0.9-3.4l-4.5-3L127,33
			l-2.7-1.8L137.2,21.9L137.2,21.9z"/>
		<path d="M144.9,36.5l2.4,2.5c1,1,2,1.2,3.1,0.1c1-1,1-2,0-3l-2.4-2.5L144.9,36.5L144.9,36.5z M147.6,29.5l5.4,5.7
			c1.8,1.9,1.6,4.4,0,5.9c-1.3,1.2-2.7,1.6-4.3,0.9l0,0c0.8,1.4,0,2.8-1.1,3.9c-0.6,0.7-1.9,1.9-2.1,2.9l-2.2-2.3
			c0.4-0.9,1.5-1.9,2.2-2.8c1-1.2,1.1-2.1,0-3.3l-2.2-2.3l-4.2,4l-2.2-2.3L147.6,29.5L147.6,29.5z"/>
		<path d="M158.9,51.8c1.2-1,1.4-2.7,0.5-4.1c-1.5-2.4-4.2-2-6.4-0.6c-2.1,1.3-3.7,3.6-2.1,6c1,1.7,2.8,1.9,4.6,1l1.6,2.6
			c-3.3,1.7-6.7,0.8-8.6-2.2c-2.4-3.8-0.9-7.9,2.8-10.2c3.8-2.4,8.1-1.9,10.5,1.9c1.7,2.7,1.5,6-1.2,8.2L158.9,51.8L158.9,51.8z"/>
		<polygon points="166.4,55.2 167.5,58.2 162.1,60.1 164.1,65.7 169.5,63.8 170.6,66.8 156.5,71.8 155.4,68.8 161.5,66.6
			159.5,61.1 153.4,63.3 152.3,60.2 166.4,55.2 		"/>
		<polygon points="171.4,70.5 173,81.3 170.3,81.7 169.2,74.1 166,74.6 167,81.6 164.5,81.9 163.5,75 159.8,75.5 161,83.3
			158.3,83.7 156.6,72.7 171.4,70.5 		"/>
		<path d="M166.3,87.8l-0.2,3.5c-0.1,1.4,0.5,2.2,2,2.3c1.4,0.1,2.1-0.7,2.2-2.1l0.2-3.5L166.3,87.8L166.3,87.8z M173.2,85l-0.4,7.8
			c-0.1,2.6-2.1,4.2-4.3,4.1c-1.8-0.1-3-0.8-3.6-2.5l0,0c-0.5,1.5-2.1,1.9-3.6,2c-0.9,0-2.7-0.1-3.6,0.4l0.2-3.2
			c1-0.3,2.4-0.2,3.6-0.3c1.6-0.1,2.3-0.7,2.4-2.3l0.2-3.2l-5.8-0.3l0.2-3.2L173.2,85L173.2,85z"/>
		<polygon points="162.5,101.3 172.6,98.1 171.7,101.7 165.2,103.6 170.2,108.3 169.4,111.8 161.6,104.4 156.1,103.1 156.8,99.9
			162.5,101.3 		"/>
		<path d="M38.2,129.9l2.3,3l3.2-4.8l0,0L38.2,129.9L38.2,129.9z M45.6,124.5l2,2.6l-8.4,13.5l-2.1-2.6l1.9-2.9l-3.4-4.3l-3.3,1.2
			l-2-2.6L45.6,124.5L45.6,124.5z"/>
		<path d="M45.5,139.5c-1.3,1.5-0.7,3.1,0.6,4.2c0.8,0.7,2.3,1.6,3.4,0.5c1.1-1.2-0.4-2.9-1.6-4.7c-1.2-1.9-2.3-4-0.4-6.1
			c2-2.3,5.1-1.5,7.1,0.2c2.3,2,3.5,4.9,1.2,7.5l-2.3-2.1c1.1-1.4,0.5-2.6-0.7-3.6c-0.8-0.7-1.9-1.1-2.8-0.2
			c-0.8,0.9-0.3,1.4,1.8,4.6c0.6,0.9,2.6,3.6,0.4,6.1c-1.8,2.1-4.8,2.2-7.7-0.4c-2.4-2.1-3.6-5.4-1.1-8.1L45.5,139.5L45.5,139.5z"/>
		<path d="M56,147.9c-1,1.7-0.1,3.1,1.4,4c1,0.6,2.6,1.2,3.4-0.1c0.8-1.4-0.9-2.7-2.4-4.3c-1.6-1.6-3-3.5-1.6-5.9
			c1.6-2.6,4.7-2.4,7-1.1c2.6,1.6,4.3,4.2,2.5,7.1l-2.7-1.6c0.8-1.6,0-2.6-1.3-3.4c-0.9-0.5-2.1-0.8-2.8,0.3c-0.6,1-0.1,1.5,2.6,4.2
			c0.8,0.8,3.2,3,1.5,6c-1.4,2.4-4.3,3-7.7,1c-2.8-1.7-4.5-4.6-2.6-7.7L56,147.9L56,147.9z"/>
		<path d="M71,158c2.7,0.9,4.6-1.1,5.4-3.4c0.9-2.5,0.7-5.2-2-6.1c-2.7-0.9-4.6,1.1-5.4,3.5C68.1,154.3,68.3,157,71,158L71,158z
			 M75.2,145.8c4.3,1.5,5.6,5.6,4.2,9.8c-1.4,4.1-5.1,6.5-9.3,5c-4.3-1.5-5.6-5.6-4.2-9.7C67.3,146.7,71,144.3,75.2,145.8
			L75.2,145.8z"/>
		<path d="M91.2,154.6c0-1.5-1.3-2.8-2.9-3c-2.9-0.3-4.2,2-4.5,4.6c-0.3,2.5,0.5,5.1,3.3,5.4c1.9,0.2,3.2-1,3.7-2.9l3.1,0.4
			c-0.8,3.7-3.5,5.7-7.1,5.3c-4.5-0.5-6.7-4.3-6.2-8.6c0.5-4.4,3.6-7.5,8-7c3.2,0.4,5.6,2.6,5.6,6.1L91.2,154.6L91.2,154.6z"/>
		<polygon points="95.8,149.7 99,149.6 99.5,164.5 96.2,164.6 95.8,149.7 		"/>
		<path d="M105.2,158.2l3.7-0.6l-2.7-5.1l0,0L105.2,158.2L105.2,158.2z M104,149.1l3.2-0.5l7.7,13.9l-3.3,0.5l-1.6-3.1l-5.4,0.9
			l-0.6,3.5l-3.2,0.5L104,149.1L104,149.1z"/>
		<polygon points="115.1,149.5 111,150.9 110.1,148.3 121.4,144.4 122.3,147 118.2,148.4 122.1,160 119,161 115.1,149.5 		"/>
		<polygon points="122.5,143.6 125.4,142.2 132.1,155.5 129.3,157 122.5,143.6 		"/>
		<path d="M139,148.4c2.4-1.7,1.8-4.3,0.3-6.4c-1.5-2.1-3.8-3.6-6.2-1.9c-2.3,1.7-1.8,4.3-0.3,6.5
			C134.3,148.6,136.7,150.1,139,148.4L139,148.4z M131.6,137.9c3.7-2.6,7.8-1.3,10.4,2.3c2.5,3.5,2.3,7.9-1.4,10.5
			c-3.7,2.6-7.8,1.3-10.3-2.2C127.7,144.8,127.9,140.5,131.6,137.9L131.6,137.9z"/>
		<polygon points="137.9,133.6 140.1,131.3 151.6,133.5 151.6,133.4 144.2,126.7 146.2,124.5 157.3,134.5 155.1,136.9 143.6,134.7
			143.6,134.7 151,141.4 149,143.7 137.9,133.6 		"/>
		<path d="M31.4,115.2c1.3,0,2.3,1,2.3,2.3c0,1.3-1,2.3-2.3,2.3c-1.3,0-2.3-1-2.3-2.3C29.1,116.2,30.1,115.2,31.4,115.2L31.4,115.2z
			"/>
		<path d="M158.1,115.2c1.3,0,2.3,1,2.3,2.3c0,1.3-1,2.3-2.3,2.3c-1.3,0-2.3-1-2.3-2.3C155.8,116.2,156.8,115.2,158.1,115.2
			L158.1,115.2z"/>
		<path d="M128.2,127.3c0-1.6,2-0.9,2.1-2.4C131.5,125.8,129.4,127.4,128.2,127.3L128.2,127.3z M121,122c-3.6,0.1-5.7-1.2-9.4-1
			c-0.1-2.4,2.9-1.2,4-0.8c1.5-0.1,2.5-0.7,3.1-1.8c1.2-0.5,2.1,0.2,4-0.3c0.2,0,1-0.9,1-0.9c0.8-0.1,1.1,0.5,2,0.6
			c1.1,0.2,1.3-0.5,2-0.4c-0.3,0,2.5,1.7,2-0.4c0.7,0.8,0.7,2.2,0.8,3.5C127.2,118.2,122.9,119.4,121,122L121,122z M119.3,134.6
			c-1.5-0.1-2.4-1.3-2.4-2.7c0.1-1.4,1.2-2.5,2.6-2.4l0,0c1.4,0.1,2.4,1.3,2.3,2.7C121.9,133.6,120.7,134.7,119.3,134.6L119.3,134.6
			z M112,132.4c-1.2,0.1-1-1-2.5-0.6c1-1.3,2.1-2.6,4.1-2.8C113.7,130.8,112.1,130.7,112,132.4L112,132.4z M92.4,127.8
			c-2.6,0.2-2.4-2.6-1.8-4.1C92.1,124.2,93.1,126.9,92.4,127.8L92.4,127.8z M87,135c0-1.2,0.9-1.5,1.1-2.4
			C89.1,132.8,88.8,136.1,87,135L87,135z M77,83.2c-2.6-2.5-1.7-9.4-0.3-12.9C77.2,74.2,77,78.8,77,83.2L77,83.2z M48.6,101
			c0.8-1.4,3-1.2,4.6-1.7C53.3,101.7,49.9,100.1,48.6,101L48.6,101z M46.7,108.4c0.7-1,1.7-1.6,3.1-1.8
			C49.6,108.1,48,108,46.7,108.4L46.7,108.4z M88.4,109.7c-1-0.8,0-3.5-0.7-4.5C89.7,106,89.7,108,88.4,109.7L88.4,109.7z
			 M133.4,54.3c-1.5,1-7.7,4.1-9.3,4.3l-0.5,0c-1.4,1.5-3.2,2.3-5.1,3.1c-0.1-0.1-0.2-0.1-0.2-0.2l-0.8,0.2
			c-1.1,1.6-3.4,1.8-4.7,3.1c0,0-0.1,0-0.1-0.1l-0.9,0.1c-0.5,0.6-1.4,0.9-2.1,1.3c-0.6,0.3-1.6,0.6-2,0.9c-1.3,0.8-2.4,2.1-3.6,2.8
			c-0.6,0.4-1.9,0.5-2.5,0.9c-0.2,0.1-0.4,0.9-0.6,1c-1,0.4-1.5,0.3-2.5,0.9c-0.3,0.2-0.7,0.2-1,0.4c-0.8,0.5-1,1.1-1.6,1.4
			c-0.7,0.4-1.8,0.1-2.5,0.4c-0.6,0.3-0.9,1.1-1.6,1.4c-0.7,0.3-1.4,0.5-2,0.9c-0.7,0.4-1.1,1.1-2,0.9c-0.8,3.1-1.5,6.4-4.4,7.2
			c-0.3-4.1,0.1-9.2,0.8-13.9c0.2-1.7,1.1-2.9,0.7-4.4c-0.6-3.1-3.1-3.2-5.2-5.3c-1.8-0.6-0.9,1.8-2.6,1.3c0.2-3.3,3-2.1,5-1.2
			c2-1,4-1.9,4.7-4.2c0.5-0.4,1.1-0.5,2-0.4c0.7-0.6,0.4-2.3,1.2-2.9c2.8-0.9,4.5-3,6.2-5.1c0.8-2.1-0.7-4.6-0.2-4.9l-1,0.4
			c-2.3,3.2-6,4.8-9.3,6.8c-2.8,0.4-4.7-0.8-6.9-0.9c-3.9-0.1-6.5,1.3-9,1.5c-1.9,0.1-4-0.4-6.4-0.4c-0.6,1.3-1.8,2.2-2.2,3.9
			c-0.3,1.2,0.2,2.6,0.3,4c0.2,8.5-0.7,20.5-1.2,29.8c-0.2,1.1,1.4,0.6,1.4,1.6c-1.9,0.5-3.3,1.8-5.1,2.7c-3.6,1.9-7.7,2.8-11.7,4.3
			c-1.8,0.7-3.1,1.6-4.7,2.3c1,4.4,2.6,8.6,4.5,12.6c4.6-1.8,9.5-3.3,14.1-5.2c0.5-0.8,0.9-1.3,1.6-1.9c0.6-0.6,1.6-0.9,2.1-1.4
			c0.6-0.7,1-2.3,1.7-3.4c0.6-1,1.7-1.9,2.1-2.9c0.4-0.9,0.4-2.6,0.7-3.9c1.3-5.1,2.4-10.7,2.4-16.8c0-2.9-1.4-7,1.5-8.9
			c0.9,10.1,2.2,24.1-1.8,33.2c-1-0.4-0.7,0.6-1,0.9c-1.7,1.6-4.7,1.8-5.2,4.7c-1.6-1.3-4.8,0.3-3.6,2.3c2.2,0,3.6-1.4,5.1-2.2
			c0.4-0.2,0.7-0.3,1-0.4c1.2-0.7,2.4-1.9,4.1-1.8c0.3-2.5,2.1-3.3,4.2-3.7c1.8,1.2,3.6,3.6,3.1,6.1c1.5,1.4,4.3,1.9,4.8,3.7
			c0.2,2.1-1.5,2.2-2.6,2.8c-1-1.9-1.7-2.2-4.4-1.7c0.2-1.2-1.3-0.9-1.9-1.6c-0.3-0.4,0.4-1.5,0.1-2c-0.5-0.7-3.1-0.2-2.4-1.6
			c0-0.7,0.1-1.3,0.1-2c-1.3-0.4-1.1,1.4-1.6,1.9c-0.3,0.3-1.2,0-1.5,0.4c-0.3,0.4,0.2,1.5-0.6,1.5c-2,0.5-2.9,2.4-5.1,2.7
			c-1.2-0.1-2.3-0.1-3.5-0.2c-0.8,0.8-0.4,3-1.7,3.4c-0.9,0.9-1.2-0.5-3-0.2c-1.3,1.8-2.7,0.6-4.5,1.2c-0.4,1.4,0.8,0.7,1.4,1.1
			c0.7,0.4,1.6,0.5,1.9,1.6c-1.5-0.1-2.7,0.1-3.6,0.7c10.3,15.1,27.6,25.1,47.3,25.1c18.9,0,35.7-9.2,46.1-23.4
			c-1.6-3.4-8.5,0.9-9.2-3.3c3.2,0,0.5-3.4,2.7-4.3c3.2,0.1,6.5,3.6,9.6,2.9c1.2-2,2.2-4.1,3.2-6.2c-1.3-0.2-2.3-0.6-3.6-0.6
			c-1.4,0-2.4,0.9-3.5,0.8c-1.2-0.1-2.3-0.8-3.4-1.2c-0.6-0.2-1.4,0.1-2-0.1c-0.5-0.2-0.5-0.8-1.4-1.1c-1.3-0.4-3-0.4-4.4-0.7
			c-2.7-0.7-5-1.7-8.4-1.5c-2.2,0.7-2.8,3.2-6.1,2.6c-0.5,0.6-0.6,1.8-1.1,2.4c-0.9,0.1-2.5-0.6-2,0.9c6,3.1,13.7-0.5,19.3,1.6
			c-1,0.9-2.4,0.1-3.5,0.3c-0.8,0.2-1.2,0.8-2,0.9c-0.9,0.1-1.9-0.2-3-0.2c-1.1,0.1-2.4,0.8-3.5,0.8c-3.2,0.1-6.7-1.1-9.5,0.5
			c0.1-1.3-2-1.5-2.9-1.7c-2.8-0.4-7.2,0.5-10,0.4c-1.1,2.4,2.4,2.1,0.8,3.5c-2.7,0.9-4.1-0.7-6.4-0.4c-2.2,0.3-3.5,1.4-5.1,2.2
			c-3.5,1.7-7.3,5-11.1,3.9c2.4-0.5,3.5-2.4,5.2-3.7c2.2-0.4,3.7-2.1,5.1-3.2c0.4-0.3,1.2-0.2,1.5-0.4c0.3-0.2,0.7-0.7,1-0.9
			c3.4-2.4,6.9-3.8,5.9-8.6c-0.7-3.5-5.7-3-6.6-7.3c-1.2,0-2.4,0-2.4-1.1c-0.5-2.1-0.7-4.4-1.1-6.5c3-3.3,4.6-8.1,6.2-13.1
			c1.7-0.3,3.1-0.9,4-1.3c0.2-0.1,0.4-0.9,0.6-1c0.2-0.1,0.7,0.2,1,0.1c0.2-0.1,0.3-0.9,0.5-1c1.1-0.6,2.4-0.7,3.6-1.3
			c2.6-1.4,5.7-2.7,7.7-4c1-0.7,2.4-1.4,3.1-1.8c0.5-0.3,0.7-0.7,1-0.9c0.7-0.4,1.9-0.5,2.5-0.9c0.8-0.4,1.3-1.1,2.1-1.4
			c1.6-0.7,2.3-1.3,3.1-1.8c0.4-0.3,1.2-0.2,1.5-0.4c1.6-0.8,2.8-1.5,4.1-2.3c1.7-1.1,2.8-1.6,4.6-2.2c2.1-0.8,4.6-1.5,6.1-2.1"/>
		<polygon points="131.5,56 131.8,52.6 138.3,49.1 137.6,53 142.1,54.2 135.5,57.7 131.7,56.4 131.5,56 		"/>
	</g>
</g>
</svg>
